<svg width="20" height="20" viewBox="0 0 20 20" fill="none" xmlns="http://www.w3.org/2000/svg">
<g id="copy-05" clip-path="url(#clip0_219_1731)">
<path id="Icon" d="M6.66663 13.3333V15.6666C6.66663 16.6 6.66663 17.0668 6.84828 17.4233C7.00807 17.7369 7.26304 17.9918 7.57664 18.1516C7.93316 18.3333 8.39987 18.3333 9.33329 18.3333H15.6666C16.6 18.3333 17.0668 18.3333 17.4233 18.1516C17.7369 17.9918 17.9918 17.7369 18.1516 17.4233C18.3333 17.0668 18.3333 16.6 18.3333 15.6666V9.33329C18.3333 8.39987 18.3333 7.93316 18.1516 7.57664C17.9918 7.26304 17.7369 7.00807 17.4233 6.84828C17.0668 6.66663 16.6 6.66663 15.6666 6.66663H13.3333M4.33329 13.3333H10.6666C11.6 13.3333 12.0668 13.3333 12.4233 13.1516C12.7369 12.9918 12.9918 12.7369 13.1516 12.4233C13.3333 12.0668 13.3333 11.6 13.3333 10.6666V4.33329C13.3333 3.39987 13.3333 2.93316 13.1516 2.57664C12.9918 2.26304 12.7369 2.00807 12.4233 1.84828C12.0668 1.66663 11.6 1.66663 10.6666 1.66663H4.33329C3.39987 1.66663 2.93316 1.66663 2.57664 1.84828C2.26304 2.00807 2.00807 2.26304 1.84828 2.57664C1.66663 2.93316 1.66663 3.39987 1.66663 4.33329V10.6666C1.66663 11.6 1.66663 12.0668 1.84828 12.4233C2.00807 12.7369 2.26304 12.9918 2.57664 13.1516C2.93316 13.3333 3.39987 13.3333 4.33329 13.3333Z" stroke="white" stroke-width="1.66667" stroke-linecap="round" stroke-linejoin="round"/>
</g>
<defs>
<clipPath id="clip0_219_1731">
<rect width="20" height="20" fill="white"/>
</clipPath>
</defs>
</svg>
